<svg width="40" height="40" viewBox="0 0 40 40" fill="none" xmlns="http://www.w3.org/2000/svg">
<rect width="40" height="40" rx="20" fill="#3D3D3D" fill-opacity="0.02"/>
<path d="M27.5 19.3195V16.9003C27.5 15.5337 27.5 14.8503 27.1632 14.4045C26.8265 13.9587 26.0651 13.7422 24.5422 13.3093C23.5018 13.0136 22.5847 12.6573 21.8519 12.332C20.8528 11.8885 20.3533 11.6667 20 11.6667C19.6467 11.6667 19.1472 11.8885 18.1481 12.332C17.4153 12.6573 16.4982 13.0136 15.4578 13.3093C13.9349 13.7422 13.1735 13.9587 12.8368 14.4045C12.5 14.8503 12.5 15.5337 12.5 16.9003V19.3195C12.5 24.0072 16.719 26.8197 18.8283 27.9329C19.3342 28.1999 19.5872 28.3334 20 28.3334C20.4128 28.3334 20.6658 28.1999 21.1717 27.9329C23.281 26.8197 27.5 24.0072 27.5 19.3195Z" stroke="#3D3D3D" stroke-width="1.25" stroke-linecap="round"/>
</svg>
